<?xml version="1.0" encoding="UTF-8" standalone="no"?>
<!-- Created with Inkscape (http://www.inkscape.org/) -->

<svg
   width="50.000004"
   height="43.889717"
   id="svg2"
   version="1.1"
   inkscape:version="1.3.2 (091e20ef0f, 2023-11-25, custom)"
   sodipodi:docname="wip.svg"
   style="display:inline"
   xmlns:inkscape="http://www.inkscape.org/namespaces/inkscape"
   xmlns:sodipodi="http://sodipodi.sourceforge.net/DTD/sodipodi-0.dtd"
   xmlns="http://www.w3.org/2000/svg"
   xmlns:svg="http://www.w3.org/2000/svg"
   xmlns:rdf="http://www.w3.org/1999/02/22-rdf-syntax-ns#"
   xmlns:cc="http://creativecommons.org/ns#"
   xmlns:dc="http://purl.org/dc/elements/1.1/">
  <defs
     id="defs4">
    <inkscape:path-effect
       effect="spiro"
       id="path-effect3112"
       is_visible="true"
       lpeversion="0" />
    <inkscape:path-effect
       effect="spiro"
       id="path-effect3106"
       is_visible="true"
       lpeversion="0" />
    <inkscape:path-effect
       effect="spiro"
       id="path-effect3102"
       is_visible="true"
       lpeversion="0" />
    <inkscape:path-effect
       effect="spiro"
       id="path-effect4043"
       is_visible="true"
       lpeversion="0" />
    <inkscape:path-effect
       effect="spiro"
       id="path-effect4039"
       is_visible="true"
       lpeversion="0" />
    <inkscape:path-effect
       effect="spiro"
       id="path-effect3070"
       is_visible="true"
       lpeversion="0" />
    <inkscape:perspective
       sodipodi:type="inkscape:persp3d"
       inkscape:vp_x="0 : -603.07678 : 1"
       inkscape:vp_y="0 : 1000 : 0"
       inkscape:vp_z="744.09448 : -603.07678 : 1"
       inkscape:persp3d-origin="372.04724 : -778.47048 : 1"
       id="perspective10" />
    <inkscape:perspective
       id="perspective2881"
       inkscape:persp3d-origin="0.5 : -1128.9245 : 1"
       inkscape:vp_z="1 : -1128.7579 : 1"
       inkscape:vp_y="0 : 1000 : 0"
       inkscape:vp_x="0 : -1128.7579 : 1"
       sodipodi:type="inkscape:persp3d" />
    <inkscape:perspective
       id="perspective3750"
       inkscape:persp3d-origin="0.5 : -1128.9245 : 1"
       inkscape:vp_z="1 : -1128.7579 : 1"
       inkscape:vp_y="0 : 1000 : 0"
       inkscape:vp_x="0 : -1128.7579 : 1"
       sodipodi:type="inkscape:persp3d" />
    <inkscape:perspective
       id="perspective2839"
       inkscape:persp3d-origin="0.5 : -1128.9245 : 1"
       inkscape:vp_z="1 : -1128.7579 : 1"
       inkscape:vp_y="0 : 1000 : 0"
       inkscape:vp_x="0 : -1128.7579 : 1"
       sodipodi:type="inkscape:persp3d" />
    <inkscape:perspective
       id="perspective3718"
       inkscape:persp3d-origin="0.5 : -1128.9245 : 1"
       inkscape:vp_z="1 : -1128.7579 : 1"
       inkscape:vp_y="0 : 1000 : 0"
       inkscape:vp_x="0 : -1128.7579 : 1"
       sodipodi:type="inkscape:persp3d" />
    <inkscape:perspective
       id="perspective2964"
       inkscape:persp3d-origin="0.5 : -1128.9245 : 1"
       inkscape:vp_z="1 : -1128.7579 : 1"
       inkscape:vp_y="0 : 1000 : 0"
       inkscape:vp_x="0 : -1128.7579 : 1"
       sodipodi:type="inkscape:persp3d" />
  </defs>
  <sodipodi:namedview
     id="base"
     pagecolor="#ffffff"
     bordercolor="#666666"
     borderopacity="1.0"
     inkscape:pageopacity="0.0"
     inkscape:pageshadow="2"
     inkscape:zoom="25.655212"
     inkscape:cx="24.985177"
     inkscape:cy="21.944859"
     inkscape:document-units="px"
     inkscape:current-layer="layer1"
     showgrid="false"
     inkscape:window-width="2560"
     inkscape:window-height="1376"
     inkscape:window-x="0"
     inkscape:window-y="0"
     inkscape:window-maximized="1"
     showguides="true"
     inkscape:guide-bbox="true"
     inkscape:showpageshadow="2"
     inkscape:pagecheckerboard="0"
     inkscape:deskcolor="#d1d1d1">
    <inkscape:grid
       type="xygrid"
       id="grid3732"
       empspacing="5"
       visible="false"
       enabled="true"
       snapvisiblegridlinesonly="true"
       originx="-8.1141131e-08"
       originy="1.5755503e-06"
       spacingy="1"
       spacingx="1"
       units="px" />
    <sodipodi:guide
       orientation="1,0"
       position="1001.3376,18.893224"
       id="guide3639"
       inkscape:locked="false" />
  </sodipodi:namedview>
  <metadata
     id="metadata7">
    <rdf:RDF>
      <cc:Work
         rdf:about="">
        <dc:format>image/svg+xml</dc:format>
        <dc:type
           rdf:resource="http://purl.org/dc/dcmitype/StillImage" />
      </cc:Work>
    </rdf:RDF>
  </metadata>
  <g
     id="layer1"
     inkscape:label="fond"
     transform="scale(0.04984257)"
     style="display:inline;stroke-width:20.0632"
     inkscape:groupmode="layer">
    <path
       style="font-size:12px;display:inline;fill:#ff0000;fill-rule:evenodd;stroke-width:60.1897pt"
       sodipodi:nodetypes="ccccccc"
       id="path590"
       d="M 51.383862,880.56669 C 14.099121,877.51422 -11.288231,834.18206 5.0487406,800.28906 72.620891,682.97437 381.03142,153.14162 455.12359,23.191142 c 21.28588,-30.7632827 71.50628,-31.0832827 92.69002,0.0117 67.81141,117.176518 374.91263,646.553508 450.40698,775.694438 15.99881,33.81578 -8.83424,77.46792 -46.35494,80.26621 -135.38357,0.13844 -750.89529,0.59387 -900.481788,1.40342 z"
       inkscape:connector-curvature="0" />
    <path
       style="font-size:12px;display:inline;fill:#ffbb00;fill-opacity:1;fill-rule:evenodd;stroke:none;stroke-width:20.0632"
       sodipodi:nodetypes="cccc"
       id="path605"
       d="M 151.33394,778.29654 861.84245,776.24075 504.75161,148.96086 Z"
       inkscape:connector-curvature="0" />
    <path
       style="display:inline;fill:none;stroke:#000000;stroke-width:20.0632px;stroke-linecap:butt;stroke-linejoin:miter;stroke-opacity:1"
       d="M 428.99301,769.00765 Z"
       id="path3714"
       inkscape:connector-curvature="0" />
  </g>
  <g
     inkscape:label="man"
     id="g3051"
     style="display:inline"
     inkscape:groupmode="layer">
    <path
       inkscape:connector-curvature="0"
       d="m 23.386323,27.239214 v 1.198919 h 6.606423 l 0.339752,1.217622 c 0.275559,1.033889 0.529547,2.071853 0.745771,3.115332 0.11394,0.549993 0.217877,1.09821 0.298982,1.646656 0.06952,0.474574 0.125035,0.938753 0.137598,1.391885 0.0047,0.179562 0.0046,0.350667 -0.01019,0.509541 -0.01378,0.126606 -0.02727,0.230403 -0.05436,0.305353 h -4.802364 v 1.198918 h 4.892439 c 0.103589,0.0015 0.213615,-0.01929 0.327859,-0.06369 0.108617,-0.04522 0.205787,-0.108178 0.287088,-0.187331 0.173056,-0.184394 0.273808,-0.373289 0.317671,-0.539513 0.06718,-0.215303 0.100383,-0.417998 0.11382,-0.59759 0.0199,-0.230768 0.02212,-0.453275 0.01529,-0.665041 -0.01659,-0.532145 -0.0783,-1.047135 -0.152889,-1.545466 -0.08627,-0.581584 -0.193338,-1.155399 -0.310876,-1.721588 -0.223443,-1.07663 -0.483661,-2.139531 -0.764416,-3.192122 L 31.13099,28.438164 h 2.040202 v -1.19892 h -9.784877 z"
       id="path3055"
       style="stroke-width:1" />
    <path
       sodipodi:nodetypes="ccccccccccccccccccccccccccccccccccc"
       inkscape:connector-curvature="0"
       id="path3057"
       d="m 15.63536,27.380654 c -0.34891,-0.172076 -0.780099,-0.195441 -1.095467,-0.0031 -0.01409,-0.0071 -0.05625,0.953302 -0.07884,1.204273 -0.04448,0.480012 -0.09437,0.969759 -0.129268,1.46815 -0.033,0.452657 -0.05791,0.929447 -0.02652,1.428018 0.01063,0.19001 0.03749,0.402726 0.09447,0.628729 0.03051,0.16551 0.120289,0.370688 0.29334,0.585253 0.134879,0.132426 0.249959,0.206005 0.334772,0.232429 0.122746,0.05153 0.235908,0.08377 0.333115,0.103673 0.271172,0.05821 0.528844,0.08075 0.768981,0.09197 0.380241,0.01936 0.756516,0.01631 1.128613,0.005 l 0.07292,3.126924 -1.536306,1.571826 h 1.488245 l 0.472327,-0.555155 0.503815,0.555155 h 1.536305 l -1.524704,-1.682185 0.06463,-3.076759 2.230708,-0.200659 c 0.09118,-0.406917 0.0821,-0.886501 -0.106066,-1.192244 l -2.49919,0.222396 c -0.605303,0.03442 -1.199085,0.06 -1.779927,0.02843 -0.221562,-0.01304 -0.426111,-0.02846 -0.608224,-0.07023 -0.04565,-0.01115 -0.08318,-0.02197 -0.112696,-0.03177 0.0063,0.01976 0.0087,0.03257 0.0083,0.03679 -0.0014,-0.0015 -0.0053,-0.0045 -0.0083,-0.01338 -0.03233,-0.02546 -0.04586,-0.04092 -0.0464,-0.04348 0.002,0.001 0.0071,0.0048 0.01326,0.01003 0.0094,0.0046 0.02054,0.0058 0.03315,0.01003 -0.0042,-0.01317 -0.0084,-0.02981 -0.01657,-0.04849 -0.02903,-0.101866 -0.04274,-0.230882 -0.05469,-0.381251 -0.02777,-0.39297 -0.0027,-0.812145 0.02652,-1.250769 0.03273,-0.47117 0.07926,-0.948958 0.124296,-1.436379 0.02847,-0.29938 0.08213,-1.333347 0.09542,-1.323216 z"
       style="fill-rule:evenodd;stroke-width:1" />
    <path
       style="fill-rule:evenodd;stroke-width:1"
       inkscape:connector-curvature="0"
       d="m 26.725141,20.20036 c -1.050788,0 -1.902615,0.939353 -1.902615,2.098109 0,1.069555 0.726744,1.95166 1.664788,2.081263 l 0.995448,-2.19552 0.01869,-0.04121 0.02548,-0.05432 c 0.312969,0.129747 0.626231,0.258709 0.939402,0.387778 -0.0639,0.368086 -0.166506,0.727205 -0.263311,1.08652 -0.0095,0.03087 -0.01929,0.06267 -0.02888,0.09367 0.282517,-0.366108 0.453573,-0.839783 0.453573,-1.358136 0,-1.158755 -0.851828,-2.098108 -1.902615,-2.098108 z m 0.854491,2.038163 -1.630812,3.596757 -0.489245,-1.798379 c -0.380523,-0.419622 -0.543604,-0.59946 -0.761046,-1.498649 -1.664353,1.422938 -9.078191,6.173835 -6.903774,8.572272 0.972454,0.536175 4.892439,0.59946 4.892439,0.59946 l -1.335202,5.775433 1.583248,0.436479 c 0,0 1.926697,-6.81166 1.235014,-7.751612 -0.396771,-0.539226 -2.081515,-0.749804 -3.620078,-0.827974 l 3.767831,-3.806568 c 0.403706,0.882164 0.960874,1.637784 1.630813,1.498649 1.544705,-0.320801 2.393543,-4.48096 2.393543,-4.48096 l -0.762731,-0.314717 z"
       id="path3059" />
    <path
       inkscape:connector-curvature="0"
       d="m 29.531769,21.078568 v 0.481438 h 2.641591 v -0.481438 z m -0.124007,0.545137 v 0.269757 h 3.411117 v -0.269757 z m 0.219138,0.331573 v 0.438355 h 2.779177 v -0.438355 z m -0.219138,0.48519 v 0.254771 h 3.149535 v -0.254771 z m 0.387319,0.288491 c -0.173938,7.92e-4 -0.278598,0.0019 -0.278598,0.0019 l -0.04926,0.179838 3.217484,0.350312 0.365237,-0.23042 c -0.235549,-0.310448 -0.496843,-0.251575 -0.835792,-0.267887 -0.75898,-0.03651 -1.897233,-0.0361 -2.419039,-0.03372 z m -0.361834,0.224797 v 0.380285 h 3.151219 v -0.0562 c -1.043775,-0.0721 -2.102335,-0.224516 -3.151219,-0.32408 z M 29.696558,23.379 v 0.25477 h 3.149534 V 23.379 Z m -0.164778,0.29973 v 0.384026 h 2.877732 V 23.67873 Z m 0.203852,0.442102 v 0.359676 h 2.877732 v -0.359676 z m -0.146094,0.402765 v 0.116145 h 2.558311 v -0.116145 z m 2.184637,0.174214 c -0.54817,0.0019 -1.223381,0.0094 -1.729314,0.03372 -0.338948,0.01631 -0.598563,-0.04256 -0.834106,0.267887 l 0.363535,0.228544 3.21917,-0.348436 -0.04926,-0.179838 c 0,0 -0.421837,-0.0038 -0.970008,-0.0019 z m 1.019258,0.237914 c -0.961364,0.105247 -1.923054,0.208366 -2.884473,0.312846 -0.06722,0.0268 -0.131547,0.0393 -0.193659,0.03934 v 0.06744 H 32.79346 V 24.93573 Z m -3.428077,0.479568 v 0.419621 h 3.107024 v -0.419621 z m 0.234429,0.479567 v 0.59946 h 3.105339 v -0.59946 z m 0.154591,0.659406 v 0.599459 h 2.718021 v -0.599459 z"
       id="path3061"
       style="stroke-width:1" />
  </g>
</svg>
