<?xml version="1.0" encoding="UTF-8" standalone="no"?>
<!-- Created with Inkscape (http://www.inkscape.org/) -->

<svg
   xmlns:dc="http://purl.org/dc/elements/1.1/"
   xmlns:cc="http://creativecommons.org/ns#"
   xmlns:rdf="http://www.w3.org/1999/02/22-rdf-syntax-ns#"
   xmlns:svg="http://www.w3.org/2000/svg"
   xmlns="http://www.w3.org/2000/svg"
   xmlns:sodipodi="http://sodipodi.sourceforge.net/DTD/sodipodi-0.dtd"
   xmlns:inkscape="http://www.inkscape.org/namespaces/inkscape"
   width="1003.1585"
   height="1173.1476"
   id="svg2"
   version="1.1"
   inkscape:version="0.48.5 r10040"
   sodipodi:docname="man-at-intellectual-work-no-text.svg"
   style="display:inline">
  <defs
     id="defs4">
    <inkscape:path-effect
       effect="spiro"
       id="path-effect3112"
       is_visible="true" />
    <inkscape:path-effect
       effect="spiro"
       id="path-effect3106"
       is_visible="true" />
    <inkscape:path-effect
       effect="spiro"
       id="path-effect3102"
       is_visible="true" />
    <inkscape:path-effect
       effect="spiro"
       id="path-effect4043"
       is_visible="true" />
    <inkscape:path-effect
       effect="spiro"
       id="path-effect4039"
       is_visible="true" />
    <inkscape:path-effect
       effect="spiro"
       id="path-effect3070"
       is_visible="true" />
    <inkscape:perspective
       sodipodi:type="inkscape:persp3d"
       inkscape:vp_x="0 : 526.18109 : 1"
       inkscape:vp_y="0 : 1000 : 0"
       inkscape:vp_z="744.09448 : 526.18109 : 1"
       inkscape:persp3d-origin="372.04724 : 350.78739 : 1"
       id="perspective10" />
    <inkscape:perspective
       id="perspective2881"
       inkscape:persp3d-origin="0.5 : 0.33333333 : 1"
       inkscape:vp_z="1 : 0.5 : 1"
       inkscape:vp_y="0 : 1000 : 0"
       inkscape:vp_x="0 : 0.5 : 1"
       sodipodi:type="inkscape:persp3d" />
    <inkscape:perspective
       id="perspective3750"
       inkscape:persp3d-origin="0.5 : 0.33333333 : 1"
       inkscape:vp_z="1 : 0.5 : 1"
       inkscape:vp_y="0 : 1000 : 0"
       inkscape:vp_x="0 : 0.5 : 1"
       sodipodi:type="inkscape:persp3d" />
    <inkscape:perspective
       id="perspective2839"
       inkscape:persp3d-origin="0.5 : 0.33333333 : 1"
       inkscape:vp_z="1 : 0.5 : 1"
       inkscape:vp_y="0 : 1000 : 0"
       inkscape:vp_x="0 : 0.5 : 1"
       sodipodi:type="inkscape:persp3d" />
    <inkscape:perspective
       id="perspective3718"
       inkscape:persp3d-origin="0.5 : 0.33333333 : 1"
       inkscape:vp_z="1 : 0.5 : 1"
       inkscape:vp_y="0 : 1000 : 0"
       inkscape:vp_x="0 : 0.5 : 1"
       sodipodi:type="inkscape:persp3d" />
    <inkscape:perspective
       id="perspective2964"
       inkscape:persp3d-origin="0.5 : 0.33333333 : 1"
       inkscape:vp_z="1 : 0.5 : 1"
       inkscape:vp_y="0 : 1000 : 0"
       inkscape:vp_x="0 : 0.5 : 1"
       sodipodi:type="inkscape:persp3d" />
  </defs>
  <sodipodi:namedview
     id="base"
     pagecolor="#ffffff"
     bordercolor="#666666"
     borderopacity="1.0"
     inkscape:pageopacity="0.0"
     inkscape:pageshadow="2"
     inkscape:zoom="0.63625217"
     inkscape:cx="392.87695"
     inkscape:cy="511.65403"
     inkscape:document-units="px"
     inkscape:current-layer="layer1"
     showgrid="false"
     inkscape:window-width="1920"
     inkscape:window-height="1055"
     inkscape:window-x="0"
     inkscape:window-y="0"
     inkscape:window-maximized="1"
     showguides="true"
     inkscape:guide-bbox="true">
    <inkscape:grid
       type="xygrid"
       id="grid3732"
       empspacing="5"
       visible="true"
       enabled="true"
       snapvisiblegridlinesonly="true" />
    <sodipodi:guide
       orientation="1,0"
       position="1001.3376,18.893226"
       id="guide3639" />
  </sodipodi:namedview>
  <metadata
     id="metadata7">
    <rdf:RDF>
      <cc:Work
         rdf:about="">
        <dc:format>image/svg+xml</dc:format>
        <dc:type
           rdf:resource="http://purl.org/dc/dcmitype/StillImage" />
        <dc:title></dc:title>
      </cc:Work>
    </rdf:RDF>
  </metadata>
  <g
     inkscape:groupmode="layer"
     id="layer1"
     inkscape:label="fond"
     transform="translate(-1.8119391e-6,1.5505627e-6)"
     style="display:inline">
    <path
       style="font-size:12px;fill:#ff0000;fill-rule:evenodd;stroke-width:3pt;display:inline"
       sodipodi:nodetypes="ccccccc"
       id="path590"
       d="M 51.383854,880.56661 C 14.09912,877.51413 -11.28823,834.18197 5.04874,800.28897 72.620881,682.9743 381.03138,153.1416 455.12353,23.19114 c 21.28588,-30.76328 71.50629,-31.08328 92.69002,0.0117 67.81142,117.17651 374.91259,646.55345 450.40693,775.69435 15.99882,33.81577 -8.83424,77.46793 -46.35493,80.2662 -135.38355,0.13815 -750.89521,0.59394 -900.481696,1.4035 z"
       inkscape:connector-curvature="0" />
    <path
       style="font-size:12px;fill:#ffbb00;fill-opacity:1;fill-rule:evenodd;stroke:none;display:inline"
       sodipodi:nodetypes="cccc"
       id="path605"
       d="M 151.33394,778.29654 861.84244,776.24075 504.75161,148.96086 151.33394,778.29654 z"
       inkscape:connector-curvature="0" />
    <path
       style="fill:none;stroke:#000000;stroke-width:1px;stroke-linecap:butt;stroke-linejoin:miter;stroke-opacity:1;display:inline"
       d="m 428.99301,769.00765 0,0 z"
       id="path3714"
       inkscape:connector-curvature="0" />
  </g>
  <g
     inkscape:label="man"
     id="g3051"
     inkscape:groupmode="layer"
     style="display:inline"
     sodipodi:insensitive="true">
    <g
       id="g4579">
      <path
         inkscape:connector-curvature="0"
         d="m 469.20379,546.50504 v 24.05412 h 132.5458 l 6.8165,24.42936 c 5.52859,20.74308 10.6244,41.56794 14.96254,62.50343 2.28598,11.0346 4.37129,22.03358 5.99852,33.03713 1.39471,9.52147 2.50859,18.83438 2.76064,27.92564 0.0953,3.60258 0.0914,7.03548 -0.20449,10.223 -0.27642,2.54012 -0.54718,4.62261 -1.09064,6.12635 h -96.35065 v 24.05411 h 98.15784 c 2.07833,0.0306 4.28579,-0.38708 6.57789,-1.27787 2.17921,-0.90721 4.12874,-2.1704 5.75989,-3.75845 3.47207,-3.69954 5.49346,-7.48937 6.3735,-10.82435 1.34782,-4.31965 2.01399,-8.38636 2.28358,-11.98954 0.39936,-4.62994 0.44385,-9.09414 0.30675,-13.34283 -0.33287,-10.67653 -1.57096,-21.00886 -3.06743,-31.00696 -1.73085,-11.66842 -3.87898,-23.18096 -6.23716,-34.54052 -4.48298,-21.6006 -9.70378,-42.92577 -15.33662,-64.04409 l -4.87387,-17.5138 h 40.93291 V 546.50564 H 469.20363 z"
         id="path3055" />
      <path
         sodipodi:nodetypes="ccccccccccccccccccccccccccccccccccc"
         inkscape:connector-curvature="0"
         id="path3057"
         d="m 313.69489,549.34277 c -7.00024,-3.45238 -15.65125,-3.92117 -21.97854,-0.0627 -0.28278,-0.1419 -1.12851,19.12626 -1.58185,24.16154 -0.89244,9.63056 -1.89336,19.45644 -2.59354,29.45574 -0.66205,9.08174 -1.1618,18.64766 -0.53201,28.65057 0.21327,3.8122 0.75228,8.07996 1.89527,12.6143 0.61206,3.32066 2.41339,7.43718 5.88534,11.74203 2.70609,2.65689 5.01497,4.13311 6.71658,4.66326 2.46267,1.03376 4.73306,1.68072 6.68334,2.08002 5.44057,1.16794 10.6103,1.62004 15.42821,1.84518 7.62883,0.38845 15.1781,0.32722 22.64355,0.10059 l 1.46302,62.73601 -30.82316,31.53582 29.8589,0 9.47638,-11.13816 10.10813,11.13816 30.82316,0 -30.59041,-33.74996 1.29678,-61.72955 44.75509,-4.02585 c 1.82939,-8.16404 1.64721,-17.78603 -2.12802,-23.9202 l -50.14168,4.46197 c -12.14431,0.69066 -24.05745,1.20381 -35.71098,0.57033 -4.44523,-0.26156 -8.54914,-0.57092 -12.2029,-1.40904 -0.91579,-0.22373 -1.66882,-0.4408 -2.26104,-0.63743 0.12723,0.39639 0.17418,0.65345 0.16625,0.73808 -0.029,-0.0293 -0.10656,-0.0909 -0.16625,-0.26839 -0.6486,-0.51071 -0.92004,-0.82096 -0.93101,-0.87227 0.0403,0.0203 0.14265,0.0954 0.266,0.20129 0.18793,0.0926 0.41204,0.11731 0.66501,0.20129 -0.0848,-0.26425 -0.16945,-0.5981 -0.3325,-0.9729 -0.58245,-2.04377 -0.8574,-4.63223 -1.09727,-7.64911 -0.55711,-7.88422 -0.0533,-16.2942 0.53201,-25.0944 0.65676,-9.45315 1.59018,-19.0391 2.49378,-28.81831 0.57124,-6.00652 1.6478,-26.75117 1.91436,-26.54791 z"
         style="fill-rule:evenodd" />
      <path
         style="fill-rule:evenodd"
         inkscape:connector-curvature="0"
         d="m 536.19106,405.2833 c -21.08212,0 -38.17249,18.84641 -38.17249,42.09472 0,21.45867 14.58079,39.15649 33.40094,41.75674 l 19.97183,-44.0491 0.37491,-0.82687 0.51124,-1.08994 c 6.27916,2.60313 12.56419,5.19052 18.84739,7.78005 -1.28195,7.38498 -3.34064,14.59004 -5.28285,21.79905 -0.19138,0.61931 -0.38711,1.25731 -0.57941,1.87923 5.66819,-7.34528 9.10011,-16.8487 9.10011,-27.24851 0,-23.24831 -17.09036,-42.09471 -38.17248,-42.09471 z m 17.1438,40.89201 -32.71926,72.16236 -9.8158,-36.08118 c -7.6345,-8.41895 -10.90641,-12.02707 -15.26899,-30.06765 -33.3922,28.54863 -182.1373,123.86669 -138.5116,171.98695 19.5105,10.75738 98.15783,12.02707 98.15783,12.02707 l -26.78837,115.8735 31.76497,8.75715 c 0,0 38.65565,-136.66349 24.7783,-155.52191 -7.96048,-10.81859 -41.76179,-15.04345 -72.63024,-16.61178 l 75.59462,-76.37183 c 8.09964,17.69901 19.27819,32.85913 32.71928,30.06764 30.99169,-6.43627 48.02208,-89.90226 48.02208,-89.90226 l -15.30282,-6.31422 z"
         id="path3059" />
      <path
         inkscape:connector-curvature="0"
         d="m 592.50093,422.90294 v 9.65918 h 52.99868 v -9.65918 h -52.99868 z m -2.48798,10.93717 v 5.41218 h 68.43782 v -5.41218 h -68.43782 z m 4.39661,6.65241 v 8.79479 h 55.7591 v -8.79479 h -55.7591 z m -4.39661,9.73446 v 5.11151 h 63.18966 v -5.11151 h -63.18966 z m 7.77085,5.78803 c -3.48974,0.0159 -5.58955,0.0375 -5.58955,0.0375 l -0.98839,3.60813 64.55294,7.02836 7.32782,-4.62295 c -4.72587,-6.22858 -9.96826,-5.0474 -16.76864,-5.37466 -15.22755,-0.73256 -38.06451,-0.72424 -48.53359,-0.67652 z m -7.25954,4.51015 v 7.62972 h 63.22345 v -1.12753 c -20.94143,-1.44651 -42.17951,-4.5045 -63.22345,-6.50208 z m 5.28285,8.53175 v 5.11149 h 63.18964 v -5.11149 h -63.18964 z m -3.30596,6.01353 v 7.70477 h 57.73643 v -7.70477 h -57.73643 z m 4.08992,8.86996 v 7.21624 h 57.73643 v -7.21624 h -57.73643 z m -2.93111,8.08074 v 2.33024 h 51.32782 v -2.33024 h -51.32782 z m 43.83075,3.4953 c -10.99804,0.0389 -24.54492,0.18814 -34.69553,0.67653 -6.80038,0.32717 -12.00907,-0.85394 -16.73482,5.37465 l 7.29368,4.58532 64.58676,-6.99073 -0.9884,-3.60812 c 0,0 -8.46338,-0.0767 -19.46143,-0.0376 z m 20.44954,4.77331 c -19.28801,2.11158 -38.58257,4.18048 -57.87167,6.27668 -1.34869,0.53759 -2.63925,0.78837 -3.88542,0.78927 v 1.35304 h 61.75764 v -8.41894 z m -68.7781,9.62164 v 8.41894 h 62.33676 v -8.41894 h -62.33676 z m 4.7034,9.62165 v 12.02706 h 62.30295 v -12.02706 h -62.30295 z m 3.10157,13.22976 v 12.02706 h 54.53213 V 532.7628 h -54.53213 z"
         id="path3061" />
    </g>
  </g>
</svg>
